<svg width="52" height="63" viewBox="0 0 52 63" fill="none" xmlns="http://www.w3.org/2000/svg">
<path d="M27.5403 62.0058L12.7626 35.9201L16.7221 49.9842C17.2667 51.9165 17.0938 53.4181 16.2478 54.1043C15.8172 54.3746 15.3192 54.518 14.8108 54.5181C14.3024 54.5182 13.8044 54.3749 13.3737 54.1048C9.78297 51.7739 6.94007 48.4575 5.1853 44.5527C3.42073 40.5218 2.82753 36.0753 3.47367 31.7228C4.14554 27.3137 6.08129 23.194 9.0465 19.8625C12.085 16.5038 15.9399 13.9874 20.2374 12.5575L19.9701 11.7144C15.408 13.0014 11.2562 15.446 7.91768 18.8109C4.54925 22.2604 2.25282 26.6123 1.30634 31.3399C0.366791 36.1258 0.792656 41.0796 2.53527 45.635C3.41071 47.939 4.63675 50.094 6.17004 52.0237C7.71506 53.9256 9.49247 55.6262 11.4607 57.0858C15.2106 59.7737 19.624 61.3854 24.2235 61.7472L27.5403 62.0058Z" fill="#1A1A1A"/>
<path d="M49.8528 27.2464C48.9774 24.9424 47.7513 22.7875 46.218 20.8578C44.673 18.9559 42.8956 17.2553 40.9274 15.7957C37.1769 13.1088 32.7639 11.4968 28.1646 11.1343L24.8477 10.875L39.6255 36.9629L35.666 22.8973C35.1213 20.965 35.2942 19.4633 36.1403 18.7772C36.5711 18.5075 37.0691 18.3644 37.5773 18.3643C38.0856 18.3643 38.5836 18.5072 39.0145 18.7768C42.6052 21.1077 45.448 24.424 47.2027 28.3287C48.9673 32.3597 49.5604 36.8062 48.9142 41.1587C48.2424 45.5678 46.3066 49.6875 43.3414 53.019C40.303 56.3777 36.448 58.8941 32.1505 60.324L32.4179 61.1671C36.9799 59.8801 41.1317 57.4355 44.4703 54.0706C47.8387 50.621 50.1352 46.2692 51.0817 41.5416C52.0212 36.7556 51.5954 31.8019 49.8528 27.2464Z" fill="#1A1A1A"/>
<path d="M25.6041 0.37525C25.7207 0.254101 25.861 0.158205 26.0162 0.0935093C26.1714 0.0288137 26.3382 -0.00330256 26.5064 -0.00084551C26.6623 0.00253579 26.816 0.0376221 26.9579 0.10228C27.0999 0.166937 27.2272 0.259814 27.3321 0.37525L35.0009 7.74236C35.05 7.74236 35.076 7.79291 35.076 7.89324C35.0695 7.95432 35.0491 8.01311 35.0165 8.06514C34.9838 8.11718 34.9397 8.16108 34.8876 8.19351C34.7619 8.29462 34.6746 8.31913 34.6256 8.26857L26.5063 3.90868L18.312 8.26857C18.2109 8.31913 18.0853 8.25708 17.9352 8.08091C17.785 7.90545 17.759 7.79291 17.8601 7.74236L25.6041 0.37525Z" fill="#1A1A1A"/>
</svg>

