<svg width="8" height="8" viewBox="0 0 8 8" fill="none" xmlns="http://www.w3.org/2000/svg">
<path d="M7.20004 2.65959C7.20004 3.80839 6.26884 4.73959 5.12004 4.73959C5.06564 4.73959 5.00804 4.73639 4.95364 4.73319C4.87364 3.71879 4.06084 2.90599 3.04644 2.82599C3.04324 2.77159 3.04004 2.71399 3.04004 2.65959C3.04004 1.51079 3.97124 0.57959 5.12004 0.57959C6.26884 0.57959 7.20004 1.51079 7.20004 2.65959Z" stroke="#00B058" stroke-width="0.48" stroke-linecap="round" stroke-linejoin="round"/>
<path d="M4.95993 4.89958C4.95993 6.04838 4.02873 6.97958 2.87993 6.97958C1.73113 6.97958 0.799927 6.04838 0.799927 4.89958C0.799927 3.75078 1.73113 2.81958 2.87993 2.81958C2.93433 2.81958 2.99192 2.82278 3.04632 2.82598C4.06072 2.90598 4.87353 3.71878 4.95353 4.73318C4.95673 4.78758 4.95993 4.84518 4.95993 4.89958Z" stroke="#00B058" stroke-width="0.48" stroke-linecap="round" stroke-linejoin="round"/>
<path d="M3.68002 4.89961C3.68002 5.34146 3.32186 5.69961 2.88002 5.69961C2.43817 5.69961 2.08002 5.34146 2.08002 4.89961C2.08002 4.45776 2.43817 4.09961 2.88002 4.09961C2.90094 4.09961 2.92309 4.10084 2.94402 4.10207C3.33417 4.13284 3.64679 4.44546 3.67756 4.83561C3.67879 4.85653 3.68002 4.87869 3.68002 4.89961Z" fill="#00B058"/>
<path d="M5.92002 2.65962C5.92002 3.10147 5.56187 3.45962 5.12002 3.45962C4.67818 3.45962 4.32002 3.10147 4.32002 2.65962C4.32002 2.21777 4.67818 1.85962 5.12002 1.85962C5.14095 1.85962 5.1631 1.86085 5.18402 1.86208C5.57418 1.89285 5.88679 2.20547 5.91756 2.59562C5.91879 2.61654 5.92002 2.6387 5.92002 2.65962Z" fill="#00B058"/>
</svg>
