<svg width="9" height="6" viewBox="0 0 9 6" fill="none" xmlns="http://www.w3.org/2000/svg">
<g clip-path="url(#clip0_696_25987)">
<path d="M8.39322 2.84192C8.38774 2.76934 8.37816 2.69676 8.37542 2.62281C8.37268 2.53927 8.39048 2.45026 8.33708 2.38042C8.2508 2.26539 8.09469 2.28182 7.96323 2.28456C7.95912 2.09284 7.95501 1.89976 7.95501 1.70804C7.95501 1.57521 7.99883 1.34925 7.91804 1.23148C7.7852 1.03839 7.39629 1.06167 7.16349 1.0562C7.16075 1.02333 7.16212 0.990465 7.15938 0.958968C7.11693 0.460501 6.84715 0.383813 6.37196 0.379705C5.84748 0.375597 5.71054 0.561837 5.67356 1.07674C5.6448 1.48345 5.63522 1.89291 5.62837 2.30237C5.12716 2.34345 4.59172 2.28593 4.08778 2.29141C3.65504 2.29689 3.22094 2.29963 2.7882 2.31606C2.78135 1.91071 2.7704 1.50537 2.74164 1.10139C2.70741 0.590595 2.57183 0.400246 2.04461 0.404354C1.67761 0.404354 1.30102 0.439959 1.25309 0.857631C1.24487 0.93158 1.23939 1.00553 1.23528 1.07948C1.00659 1.08359 0.647804 1.06441 0.51497 1.23285C0.345163 1.44785 0.42322 2.0189 0.42185 2.27087C0.42185 2.27909 0.42185 2.28867 0.42185 2.29689C0.317774 2.29141 0.193158 2.28456 0.108254 2.32017C-0.0464903 2.3859 0.0110252 2.64883 0.0123946 2.78029C0.013764 2.91723 -0.0355349 3.1336 0.135642 3.17058C0.220546 3.18838 0.312297 3.19249 0.402678 3.18975C0.402678 3.51019 0.42185 3.82926 0.49306 4.11C0.582072 4.46194 0.918948 4.4592 1.24761 4.46604C1.25035 4.51123 1.25035 4.55779 1.25446 4.60299C1.2928 5.04805 1.53656 5.0768 1.93095 5.08365C2.18155 5.08776 2.57594 5.1754 2.72247 4.92343C2.80874 4.77416 2.79094 4.51671 2.79642 4.35101C2.80737 3.99496 2.80463 3.63755 2.8019 3.2815C2.8019 3.25274 2.8019 3.22398 2.8019 3.19659C3.73995 3.18564 4.68621 3.2322 5.62152 3.1829C5.61742 3.5006 5.61742 3.81968 5.62152 4.13875C5.62563 4.34417 5.5914 4.60709 5.65713 4.80292C5.77079 5.13843 6.16518 5.06448 6.46235 5.06037C6.79785 5.05489 7.07584 5.0768 7.1539 4.69063C7.17033 4.6112 7.17855 4.52767 7.18266 4.44276C7.49489 4.43729 7.83587 4.43592 7.92625 4.09904C7.99746 3.832 8.00431 3.52662 7.99609 3.22124C8.10154 3.22672 8.22342 3.22124 8.30832 3.17879C8.42746 3.11854 8.40418 2.95558 8.39596 2.84329L8.39322 2.84192ZM0.202744 2.99255C0.193158 2.90765 0.202744 2.81179 0.202744 2.72962C0.202744 2.67896 0.201374 2.62692 0.201374 2.57625C0.201374 2.56255 0.213699 2.49956 0.195896 2.49271C0.228762 2.4845 0.298603 2.49135 0.324622 2.48998C0.356118 2.48998 0.386245 2.48998 0.417742 2.48998C0.413634 2.65568 0.406787 2.82959 0.404048 3.00351C0.338316 3.00625 0.265737 3.00351 0.202744 2.99118V2.99255ZM0.669715 3.94977C0.63411 3.80598 0.647804 3.63344 0.640957 3.48417C0.620416 3.08019 0.60946 2.67622 0.612199 2.27087C0.613568 2.03396 0.58755 1.74912 0.643696 1.51769C0.709428 1.24518 0.973725 1.27667 1.22981 1.2712C1.22159 1.71626 1.26404 2.17227 1.25582 2.61185C1.24487 3.15277 1.21611 3.72382 1.23802 4.27433C0.93812 4.26885 0.754618 4.28665 0.671084 3.94977H0.669715ZM2.59922 4.48932C2.58553 4.69611 2.60744 4.844 2.38833 4.89467C2.26782 4.92206 2.08295 4.89604 1.96244 4.89467C1.73101 4.89193 1.51054 4.78923 1.4448 4.54684C1.39687 4.37155 1.45165 4.10863 1.44891 3.92649C1.4448 3.48828 1.43659 3.05144 1.44617 2.61322C1.45165 2.32291 1.44343 2.03533 1.43796 1.74501C1.43385 1.51632 1.45302 1.28763 1.45165 1.05894C1.44754 0.682346 1.70089 0.596073 2.04598 0.596073C2.21305 0.596073 2.42941 0.683715 2.52527 0.832982C2.58005 0.920624 2.55403 1.13288 2.55951 1.2397C2.57046 1.46428 2.57594 1.6875 2.58142 1.91208C2.59374 2.34071 2.60333 2.77071 2.60881 3.2007C2.61292 3.62796 2.62935 4.06207 2.60059 4.48932H2.59922ZM2.79642 3.00488C2.79642 2.83918 2.79368 2.67211 2.79094 2.50641C3.22231 2.48998 3.65641 2.48724 4.08778 2.48176C4.59035 2.47628 5.1258 2.5338 5.62563 2.49271C5.62426 2.65841 5.62152 2.82548 5.62015 2.99118C4.68347 3.04185 3.73584 2.99392 2.79642 3.00488ZM6.97999 1.71899C6.97314 2.00794 6.96629 2.29689 6.97177 2.5872C6.97999 2.99803 6.97451 3.40748 6.96903 3.81831C6.96355 4.27159 7.10186 4.8577 6.45961 4.86728C6.35279 4.86865 6.15423 4.90837 6.05289 4.86317C5.76531 4.73582 5.81735 4.51397 5.81324 4.2798C5.80503 3.87583 5.80503 3.47048 5.8105 3.0665C5.81598 2.64609 5.82694 2.22568 5.83926 1.8039C5.85296 1.34925 5.71738 0.565946 6.37196 0.571423C6.76088 0.574162 6.91014 0.701518 6.97451 1.11097C7.006 1.30817 6.98546 1.52317 6.97999 1.72036V1.71899ZM7.77151 3.51567C7.7674 3.6485 7.78109 3.81009 7.74823 3.94019C7.66606 4.26063 7.46613 4.24283 7.18129 4.24831C7.17718 4.04563 7.15938 3.83885 7.16212 3.64987C7.16759 3.29519 7.16896 2.94051 7.16212 2.58583C7.1539 2.13941 7.1854 1.69024 7.17307 1.24381C7.29084 1.24792 7.41957 1.24381 7.52775 1.27393C7.74001 1.33282 7.74412 1.35336 7.76603 1.59438C7.79342 1.89291 7.77288 2.20514 7.77699 2.50367C7.78109 2.84055 7.78383 3.17742 7.77288 3.5143L7.77151 3.51567ZM7.98651 3.02131C7.97829 2.84329 7.9687 2.668 7.96733 2.50641C7.96733 2.49545 7.96733 2.48587 7.96733 2.47491C8.01116 2.47491 8.05498 2.47491 8.0988 2.47628C8.16316 2.47902 8.16453 2.46533 8.1837 2.51463C8.19877 2.55434 8.1837 2.62418 8.18644 2.66663C8.18918 2.72141 8.1974 2.77481 8.2015 2.82959C8.20561 2.87341 8.20698 2.91723 8.20698 2.96106C8.20698 2.96516 8.20287 2.99255 8.20424 3.00762C8.1974 3.01035 8.19055 3.01309 8.18507 3.01309C8.11934 3.01309 8.05361 3.01857 7.98788 3.01994L7.98651 3.02131Z" fill="#E08304"/>
<path d="M1.64606 1.0561C1.55568 1.27383 1.58307 1.54909 1.61183 1.77641C1.62689 1.89692 1.81724 1.89829 1.80217 1.77641C1.77616 1.56415 1.74603 1.30807 1.82956 1.10677C1.87749 0.993104 1.69262 0.943805 1.64606 1.0561Z" fill="#E08304"/>
<path d="M1.90899 0.773926C1.78575 0.773926 1.78575 0.964275 1.90899 0.964275C2.03224 0.964275 2.03224 0.773926 1.90899 0.773926Z" fill="#E08304"/>
<path d="M6.07061 0.968417C6.00351 1.0588 5.99666 1.19711 5.98434 1.30392C5.96927 1.4395 5.96106 1.57918 5.97201 1.71612C5.9816 1.838 6.17332 1.83937 6.16236 1.71612C6.15277 1.60246 6.15825 1.48743 6.16784 1.37376C6.17605 1.28064 6.17605 1.1437 6.23494 1.06428C6.30752 0.965678 6.14319 0.869819 6.07061 0.968417Z" fill="#E08304"/>
<path d="M6.34176 0.724609C6.21852 0.724609 6.21852 0.914958 6.34176 0.914958C6.46501 0.914958 6.46501 0.724609 6.34176 0.724609Z" fill="#E08304"/>
</g>
<defs>
<clipPath id="clip0_696_25987">
<rect width="8.4" height="4.72038" fill="white" transform="translate(0 0.379639)"/>
</clipPath>
</defs>
</svg>
