<svg width="17" height="20" viewBox="0 0 17 20" fill="none" xmlns="http://www.w3.org/2000/svg">
<path d="M1 1V4.19387C1.00002 4.46603 1.05342 4.73548 1.15697 4.98545C1.26051 5.23542 1.41211 5.46054 1.6023 5.64756L5.59847 9.57443C5.78863 9.76126 5.94025 9.98674 6.0438 10.2365C6.14735 10.4863 6.20073 10.7551 6.20077 11.0271V19L10.7673 17.1097V11.0355C10.7674 10.7623 10.8213 10.4917 10.9257 10.241C11.0301 9.99025 11.1828 9.76443 11.3743 9.57738L15.3939 5.6515C15.5854 5.46444 15.7381 5.23864 15.8423 4.98791C15.9466 4.73718 16.0001 4.46703 16 4.19387V1.00394H4.06146" stroke="#6D7786" stroke-width="1.5" stroke-linecap="round" stroke-linejoin="round"/>
</svg>
