<svg width="16" height="16" viewBox="0 0 16 16" fill="none" xmlns="http://www.w3.org/2000/svg">
<path fill-rule="evenodd" clip-rule="evenodd" d="M14.6667 7.99967C14.6667 11.6816 11.6819 14.6663 8 14.6663C4.3181 14.6663 1.33333 11.6816 1.33333 7.99967C1.33333 4.31778 4.3181 1.33301 8 1.33301C11.6819 1.33301 14.6667 4.31778 14.6667 7.99967ZM7.99999 6.58301C8.41421 6.58301 8.74999 6.91879 8.74999 7.33301V10.6663C8.74999 11.0806 8.41421 11.4163 7.99999 11.4163C7.58578 11.4163 7.24999 11.0806 7.24999 10.6663V7.33301C7.24999 6.91879 7.58578 6.58301 7.99999 6.58301ZM8 5.99967C8.36819 5.99967 8.66666 5.7012 8.66666 5.33301C8.66666 4.96482 8.36819 4.66634 8 4.66634C7.6318 4.66634 7.33333 4.96482 7.33333 5.33301C7.33333 5.7012 7.6318 5.99967 8 5.99967Z" fill="#73797F"/>
</svg>
