<svg width="188" height="188" viewBox="0 0 188 188" fill="none" xmlns="http://www.w3.org/2000/svg">
<path d="M21.7448 132.848C21.7181 133.317 21.7852 133.786 21.9422 134.228C22.0111 134.373 22.1119 134.499 22.2371 134.599C22.3622 134.698 22.5083 134.768 22.6643 134.802C23.2256 134.922 23.7997 134.972 24.3733 134.951H27.9533C28.5041 134.977 29.0542 134.888 29.5689 134.69C30.0836 134.493 30.5515 134.19 30.9429 133.802C31.7461 132.913 32.2618 131.802 32.4223 130.615C32.4223 130.549 32.482 130.521 32.6029 130.532C32.7222 130.543 32.7834 130.581 32.7834 130.647C32.6062 132.141 32.5071 133.643 32.4866 135.148C32.4988 135.281 32.4642 135.415 32.3887 135.526C32.3343 135.571 32.2712 135.605 32.2032 135.624C32.1353 135.644 32.064 135.65 31.9939 135.641H16.8168C16.7724 135.641 16.751 135.575 16.751 135.443C16.751 135.312 16.7724 135.246 16.8168 135.246C17.4291 135.268 18.0419 135.213 18.6405 135.082C18.8105 135.044 18.969 134.965 19.103 134.854C19.237 134.743 19.3427 134.601 19.4116 134.441C19.5663 133.97 19.6332 133.475 19.609 132.98V117.769C19.6345 117.279 19.5675 116.789 19.4116 116.323C19.3391 116.166 19.2323 116.026 19.0988 115.915C18.9654 115.804 18.8087 115.725 18.6405 115.682C18.0437 115.539 17.4301 115.478 16.8168 115.502C16.7724 115.502 16.751 115.436 16.751 115.304C16.751 115.173 16.7724 115.107 16.8168 115.107L18.4263 115.141C19.3458 115.185 20.0903 115.207 20.66 115.206C21.2735 115.206 22.04 115.184 22.9595 115.141L24.5369 115.107C24.6027 115.107 24.6348 115.173 24.6348 115.304C24.6348 115.436 24.6027 115.502 24.5369 115.502C23.9347 115.479 23.3323 115.539 22.7468 115.682C22.5749 115.727 22.4149 115.809 22.2784 115.923C22.142 116.037 22.0323 116.179 21.9574 116.34C21.7909 116.808 21.7186 117.305 21.7447 117.801L21.7448 132.848Z" fill="#E5E5E5"/>
<path d="M51.5417 133.802C51.5789 133.805 51.6148 133.817 51.6463 133.837C51.6778 133.857 51.7038 133.884 51.7222 133.916C51.748 133.945 51.7635 133.982 51.7663 134.02C51.769 134.059 51.7589 134.097 51.7375 134.129C50.4348 135.344 48.7226 136.025 46.9412 136.035C45.8388 136.076 44.7487 135.793 43.8057 135.22C42.8627 134.648 42.1081 133.812 41.6353 132.815C41.165 131.854 40.9236 130.797 40.93 129.727C40.9184 128.479 41.2355 127.25 41.8495 126.163C42.447 125.095 43.3201 124.207 44.3777 123.591C45.4353 122.976 46.6386 122.656 47.8622 122.664C48.375 122.63 48.8894 122.699 49.3747 122.869C49.8599 123.038 50.3061 123.303 50.6865 123.649C51.0286 124.019 51.2922 124.454 51.4616 124.928C51.6309 125.402 51.7024 125.906 51.6717 126.409C51.6834 126.631 51.6559 126.854 51.5907 127.067C51.5712 127.125 51.5334 127.176 51.483 127.211C51.4326 127.246 51.3722 127.264 51.3107 127.263L43.1637 127.296C43.1193 127.778 43.0974 128.172 43.0979 128.479C43.0211 130.13 43.4947 131.759 44.4443 133.112C44.8824 133.692 45.4555 134.157 46.1141 134.466C46.7726 134.775 47.4966 134.919 48.2232 134.885C48.7984 134.898 49.3714 134.809 49.9154 134.622C50.4726 134.403 51.0062 134.128 51.508 133.802L51.5417 133.802ZM44.4443 124.258C43.7823 124.984 43.3584 125.895 43.2295 126.869L49.4717 126.738C49.5349 125.831 49.2789 124.93 48.748 124.192C48.5088 123.905 48.2065 123.677 47.8646 123.526C47.5228 123.375 47.1508 123.305 46.7775 123.322C46.345 123.308 45.9144 123.384 45.5128 123.545C45.1112 123.706 44.7474 123.949 44.4443 124.258Z" fill="#E5E5E5"/>
<path d="M80.5667 134.375C80.6921 134.555 80.8528 134.708 81.039 134.824C81.2252 134.939 81.4331 135.016 81.6499 135.049C82.4889 135.207 83.3425 135.273 84.1958 135.246C84.2616 135.246 84.2952 135.312 84.2952 135.443C84.2952 135.575 84.2615 135.641 84.1958 135.641C83.2977 135.641 82.597 135.63 82.0936 135.609L79.2357 135.575L77.0341 135.609C76.6179 135.63 76.0595 135.641 75.3588 135.641C75.3144 135.641 75.293 135.575 75.293 135.443C75.293 135.312 75.3144 135.246 75.3588 135.246C75.9711 135.269 76.5839 135.214 77.1825 135.082C77.3526 135.044 77.5112 134.966 77.6452 134.855C77.7793 134.743 77.8849 134.601 77.9536 134.441C78.1083 133.97 78.1752 133.475 78.151 132.98V117.769C78.1765 117.279 78.1095 116.789 77.9536 116.324C77.8813 116.166 77.7745 116.026 77.6411 115.915C77.5076 115.804 77.3509 115.725 77.1825 115.682C76.5857 115.539 75.9721 115.478 75.3588 115.502C75.3144 115.502 75.293 115.436 75.293 115.305C75.293 115.173 75.3144 115.107 75.3588 115.107L77.0019 115.141C77.9214 115.185 78.6548 115.207 79.202 115.207C79.7497 115.207 80.3632 115.173 81.0425 115.107C81.3057 115.107 81.7218 115.092 82.291 115.058C82.8601 115.026 83.3528 115.01 83.7689 115.009C85.4875 114.923 87.1878 115.396 88.6158 116.356C89.2332 116.838 89.7223 117.465 90.0401 118.181C90.3579 118.897 90.4945 119.681 90.4379 120.462C90.4817 121.761 90.1074 123.039 89.37 124.109C88.6792 125.078 87.7364 125.84 86.6437 126.311C85.5619 126.788 84.3926 127.033 83.2105 127.033C82.6693 127.045 82.1286 126.99 81.601 126.869C81.5352 126.869 81.5031 126.814 81.5031 126.704C81.5033 126.635 81.5201 126.568 81.552 126.507C81.5841 126.443 81.6224 126.42 81.6667 126.443C82.0542 126.534 82.4514 126.577 82.8494 126.573C83.5227 126.589 84.1928 126.473 84.8212 126.231C85.4497 125.989 86.0242 125.625 86.5121 125.16C87.0326 124.624 87.4347 123.984 87.6922 123.282C87.9497 122.58 88.0569 121.832 88.0069 121.086C88.0897 119.591 87.5827 118.122 86.5947 116.997C86.1327 116.506 85.5716 116.118 84.9486 115.861C84.3256 115.603 83.6549 115.481 82.981 115.502C82.4082 115.483 81.8352 115.527 81.272 115.633C81.1078 115.67 80.9542 115.743 80.8231 115.849C80.692 115.954 80.587 116.088 80.5162 116.241C80.3317 116.751 80.2536 117.294 80.2867 117.835V132.848C80.2508 133.373 80.347 133.898 80.5667 134.375Z" fill="#E5E5E5"/>
<path d="M104.975 134.606C103.413 133.68 102.139 132.338 101.296 130.729C100.428 129.085 99.9819 127.25 99.9984 125.39C99.9412 123.325 100.539 121.295 101.707 119.591C102.814 118.008 104.33 116.754 106.092 115.962C107.807 115.167 109.673 114.752 111.563 114.746C113.493 114.706 115.396 115.213 117.05 116.209C118.587 117.142 119.842 118.477 120.679 120.069C121.514 121.636 121.949 123.385 121.944 125.16C121.959 127.103 121.411 129.009 120.367 130.647C119.324 132.303 117.869 133.662 116.146 134.589C114.389 135.552 112.416 136.049 110.413 136.035C108.503 136.069 106.622 135.574 104.975 134.606ZM115.587 134.261C116.819 133.496 117.801 132.388 118.413 131.074C119.137 129.511 119.491 127.802 119.447 126.08C119.483 124.188 119.09 122.312 118.298 120.593C117.591 119.067 116.47 117.769 115.062 116.848C113.603 115.932 111.906 115.464 110.183 115.502C109.127 115.446 108.071 115.626 107.094 116.03C106.116 116.433 105.241 117.05 104.532 117.835C103.087 119.647 102.362 121.928 102.495 124.241C102.47 126.179 102.862 128.101 103.646 129.874C104.336 131.477 105.448 132.863 106.865 133.883C108.237 134.855 109.882 135.367 111.563 135.345C112.979 135.365 114.373 134.99 115.587 134.261ZM110.676 109.686C110.727 109.634 110.788 109.592 110.856 109.564C110.924 109.536 110.997 109.522 111.071 109.523C111.139 109.524 111.206 109.54 111.268 109.568C111.33 109.596 111.386 109.636 111.432 109.686L114.782 112.907C114.804 112.907 114.816 112.928 114.816 112.973C114.813 112.999 114.804 113.025 114.789 113.047C114.775 113.07 114.756 113.089 114.733 113.103C114.678 113.147 114.64 113.158 114.619 113.137L111.071 111.232L107.489 113.137C107.445 113.158 107.391 113.132 107.325 113.054C107.259 112.977 107.247 112.928 107.292 112.907L110.676 109.686Z" fill="#E5E5E5"/>
<path d="M136.203 132.848C136.176 133.317 136.243 133.786 136.399 134.228C136.469 134.372 136.57 134.499 136.695 134.598C136.82 134.698 136.967 134.767 137.123 134.802C137.684 134.922 138.257 134.972 138.83 134.951H142.412C142.962 134.977 143.513 134.888 144.027 134.69C144.542 134.493 145.01 134.19 145.401 133.802C146.204 132.913 146.719 131.802 146.879 130.615C146.879 130.549 146.94 130.521 147.06 130.532C147.181 130.543 147.24 130.581 147.24 130.647C147.064 132.141 146.966 133.643 146.945 135.148C146.957 135.281 146.923 135.415 146.847 135.526C146.793 135.571 146.73 135.605 146.662 135.624C146.594 135.644 146.523 135.65 146.452 135.641H131.275C131.231 135.641 131.209 135.575 131.209 135.443C131.209 135.312 131.231 135.246 131.275 135.246C131.887 135.268 132.499 135.213 133.097 135.082C133.268 135.044 133.427 134.966 133.561 134.854C133.695 134.743 133.801 134.601 133.87 134.441C134.025 133.97 134.092 133.475 134.067 132.98V117.769C134.093 117.279 134.026 116.789 133.87 116.323C133.798 116.165 133.69 116.026 133.557 115.915C133.423 115.804 133.266 115.724 133.097 115.682C132.501 115.539 131.888 115.478 131.275 115.502C131.231 115.502 131.209 115.436 131.209 115.304C131.209 115.173 131.231 115.107 131.275 115.107L132.885 115.141C133.804 115.185 134.549 115.207 135.118 115.206C135.732 115.206 136.499 115.184 137.418 115.141L138.995 115.107C139.061 115.107 139.093 115.173 139.093 115.304C139.093 115.436 139.061 115.502 138.995 115.502C138.393 115.479 137.79 115.54 137.204 115.682C137.032 115.727 136.873 115.809 136.736 115.923C136.6 116.037 136.491 116.179 136.416 116.34C136.249 116.808 136.177 117.305 136.203 117.801L136.203 132.848Z" fill="#E5E5E5"/>
<path d="M169.941 130.68C170.003 130.68 170.064 130.691 170.122 130.713C170.144 130.718 170.164 130.731 170.179 130.748C170.193 130.766 170.202 130.788 170.203 130.81C170.003 132.248 169.904 133.697 169.908 135.148C169.921 135.284 169.88 135.42 169.793 135.526C169.676 135.615 169.529 135.656 169.383 135.641H155.617C155.572 135.641 155.551 135.575 155.551 135.443C155.551 135.312 155.572 135.246 155.617 135.246C156.229 135.268 156.842 135.213 157.44 135.082C157.612 135.042 157.772 134.964 157.908 134.853C158.045 134.742 158.154 134.601 158.228 134.441C158.395 133.973 158.468 133.476 158.442 132.98V117.769C158.47 117.278 158.397 116.786 158.228 116.323C158.151 116.166 158.04 116.027 157.904 115.917C157.768 115.806 157.61 115.726 157.44 115.682C156.844 115.539 156.23 115.478 155.617 115.502C155.572 115.502 155.551 115.436 155.551 115.304C155.551 115.173 155.572 115.107 155.617 115.107H168.825C168.865 115.101 168.906 115.105 168.944 115.118C168.983 115.131 169.018 115.153 169.046 115.182C169.075 115.211 169.096 115.246 169.109 115.284C169.122 115.323 169.126 115.364 169.12 115.404L169.186 119.444C169.186 119.51 169.131 119.548 169.02 119.559C168.912 119.57 168.846 119.542 168.825 119.476C168.821 118.474 168.446 117.509 167.772 116.767C167.44 116.44 167.044 116.185 166.609 116.018C166.174 115.851 165.709 115.776 165.243 115.797H163.239C162.669 115.774 162.099 115.835 161.547 115.977C161.384 116.024 161.233 116.103 161.103 116.21C160.973 116.318 160.867 116.451 160.791 116.602C160.626 117.025 160.554 117.479 160.578 117.933V124.602H164.585C165.372 124.671 166.161 124.487 166.836 124.076C167.079 123.853 167.266 123.577 167.383 123.269C167.5 122.961 167.544 122.63 167.51 122.302C167.51 122.258 167.576 122.237 167.706 122.237C167.838 122.237 167.904 122.258 167.904 122.302L167.872 124.963C167.872 125.599 167.882 126.08 167.904 126.409L167.937 127.986C167.937 128.031 167.872 128.052 167.74 128.052C167.608 128.052 167.543 128.031 167.543 127.986C167.579 127.611 167.536 127.232 167.414 126.875C167.292 126.517 167.095 126.191 166.836 125.916C166.152 125.437 165.319 125.215 164.487 125.292H160.578V132.848C160.553 133.306 160.62 133.764 160.776 134.195C160.846 134.34 160.947 134.468 161.072 134.57C161.196 134.673 161.342 134.746 161.498 134.787C162.035 134.917 162.588 134.973 163.141 134.951H165.769C166.262 134.962 166.751 134.869 167.204 134.676C167.657 134.483 168.063 134.196 168.396 133.834C169.156 132.963 169.647 131.89 169.81 130.746C169.81 130.702 169.853 130.68 169.941 130.68Z" fill="#E5E5E5"/>
<path d="M60.2166 148.032C60.1925 148.01 60.1734 147.983 60.1605 147.953C60.1475 147.923 60.1411 147.891 60.1416 147.859V142.801C60.141 142.768 60.1473 142.736 60.1603 142.706C60.1732 142.676 60.1924 142.65 60.2166 142.628C60.2412 142.604 60.2702 142.586 60.302 142.573C60.3338 142.561 60.3677 142.555 60.4018 142.556H61.9271C62.2999 142.516 62.6768 142.56 63.0301 142.686C63.3834 142.811 63.704 143.014 63.9684 143.28C64.2327 143.546 64.434 143.867 64.5573 144.221C64.6807 144.575 64.7229 144.953 64.681 145.325C64.7056 145.699 64.6544 146.074 64.5306 146.428C64.4067 146.781 64.2128 147.106 63.9604 147.383C63.6874 147.634 63.3666 147.827 63.0172 147.95C62.6677 148.074 62.297 148.125 61.9271 148.102H60.4017C60.3677 148.103 60.3339 148.098 60.3021 148.085C60.2703 148.073 60.2413 148.055 60.2166 148.032ZM64.1685 145.325C64.2185 145.013 64.1952 144.693 64.1003 144.392C64.0055 144.09 63.8418 143.815 63.6221 143.587C63.4024 143.36 63.1328 143.187 62.8346 143.082C62.5365 142.976 62.2179 142.942 61.9041 142.981H60.6297V147.677H61.9041C63.4142 147.677 64.169 146.893 64.1685 145.325Z" fill="#E5E5E5"/>
<path d="M70.3708 148.032C70.3473 148.01 70.3285 147.983 70.3159 147.953C70.3032 147.923 70.2969 147.891 70.2974 147.859V142.801C70.2968 142.768 70.303 142.736 70.3157 142.707C70.3283 142.677 70.3471 142.65 70.3708 142.628C70.4206 142.58 70.4872 142.555 70.556 142.556H73.5455C73.6042 142.553 73.6618 142.572 73.7061 142.611C73.7267 142.632 73.7426 142.656 73.7529 142.684C73.7632 142.711 73.7676 142.74 73.7658 142.769C73.7671 142.797 73.7625 142.824 73.7522 142.85C73.7419 142.876 73.7262 142.899 73.7061 142.919C73.6618 142.957 73.6042 142.977 73.5455 142.974H70.7763V145.074H73.3879C73.4471 145.071 73.5052 145.091 73.5501 145.129C73.5876 145.173 73.6082 145.229 73.6082 145.286C73.6082 145.344 73.5876 145.399 73.5501 145.443C73.5052 145.482 73.4471 145.501 73.3879 145.498H70.7763V147.686H73.5455C73.6034 147.683 73.6605 147.701 73.7061 147.736C73.7269 147.756 73.743 147.78 73.7533 147.806C73.7636 147.833 73.7679 147.861 73.7658 147.889C73.7677 147.918 73.7634 147.948 73.7531 147.975C73.7428 148.002 73.7268 148.027 73.7061 148.047C73.6618 148.086 73.6042 148.105 73.5455 148.102H70.556C70.4874 148.104 70.4208 148.079 70.3708 148.032Z" fill="#E5E5E5"/>
<path d="M87.0747 148.07C87.0312 148.02 87.0087 147.956 87.012 147.889V142.981H85.1944C85.1357 142.985 85.0779 142.965 85.0337 142.926C85.0131 142.906 84.9971 142.881 84.9868 142.854C84.9765 142.827 84.9722 142.798 84.9741 142.769C84.9723 142.74 84.9767 142.711 84.987 142.684C84.9973 142.656 85.0132 142.632 85.0337 142.611C85.0779 142.572 85.1357 142.552 85.1944 142.556H89.3008C89.3591 142.555 89.4157 142.576 89.4583 142.616C89.4789 142.635 89.4952 142.659 89.506 142.686C89.5168 142.712 89.5219 142.74 89.521 142.769C89.522 142.797 89.517 142.826 89.5062 142.852C89.4954 142.878 89.4791 142.902 89.4583 142.922C89.4157 142.962 89.3591 142.983 89.3008 142.981H87.4908V147.889C87.4923 147.922 87.4873 147.955 87.476 147.986C87.4647 148.017 87.4474 148.046 87.425 148.07C87.4022 148.094 87.3745 148.112 87.3439 148.125C87.3134 148.137 87.2805 148.143 87.2476 148.142C87.2152 148.144 87.1829 148.138 87.153 148.125C87.1231 148.113 87.0964 148.094 87.0747 148.07Z" fill="#E5E5E5"/>
<path d="M98.8816 147.944C98.8824 147.972 98.8767 148 98.865 148.025C98.8533 148.05 98.8359 148.072 98.8143 148.09C98.7728 148.129 98.718 148.15 98.6613 148.149C98.6179 148.149 98.5753 148.138 98.538 148.116C98.5006 148.094 98.4698 148.062 98.4486 148.024L97.3868 146.324C97.2743 146.123 97.1135 145.952 96.9187 145.828C96.7119 145.729 96.4836 145.684 96.2547 145.695H95.1776V147.889C95.1795 147.923 95.1745 147.957 95.1629 147.989C95.1513 148.021 95.1334 148.05 95.1102 148.074C95.0613 148.118 94.9981 148.142 94.9327 148.142C94.8673 148.142 94.8042 148.118 94.7553 148.074C94.7323 148.05 94.7147 148.02 94.7033 147.989C94.692 147.957 94.6873 147.923 94.6895 147.889V142.801C94.6889 142.768 94.6951 142.736 94.7078 142.706C94.7204 142.677 94.7392 142.65 94.7629 142.628C94.8127 142.58 94.8792 142.554 94.948 142.556H96.9079C97.3892 142.525 97.8658 142.666 98.2527 142.954C98.5421 143.247 98.7102 143.639 98.7232 144.051C98.7363 144.463 98.5934 144.864 98.3231 145.175C98.0116 145.457 97.6105 145.619 97.191 145.633C97.32 145.676 97.438 145.747 97.5367 145.841C97.6613 145.962 97.7698 146.098 97.8596 146.246L98.8341 147.811C98.863 147.85 98.8796 147.896 98.8816 147.944ZM96.8759 145.278C97.7893 145.278 98.2457 144.887 98.2451 144.106C98.2574 143.947 98.2333 143.788 98.1747 143.64C98.1162 143.492 98.0246 143.359 97.907 143.252C97.6052 143.044 97.2413 142.946 96.8758 142.974H95.1684V145.278L96.8759 145.278Z" fill="#E5E5E5"/>
<path d="M109.115 147.937C109.116 147.965 109.11 147.993 109.097 148.018C109.085 148.043 109.067 148.065 109.045 148.082C108.999 148.121 108.94 148.143 108.88 148.142C108.836 148.141 108.793 148.127 108.757 148.102C108.718 148.074 108.686 148.036 108.667 147.992L108.069 146.623H105.018L104.412 147.992C104.395 148.036 104.365 148.075 104.326 148.101C104.286 148.128 104.24 148.142 104.192 148.142C104.132 148.143 104.075 148.122 104.03 148.082C104.008 148.063 103.991 148.039 103.98 148.013C103.968 147.987 103.963 147.958 103.964 147.929C103.963 147.899 103.968 147.869 103.979 147.842L106.276 142.683C106.294 142.63 106.33 142.584 106.377 142.553C106.424 142.522 106.48 142.507 106.536 142.51C106.593 142.51 106.649 142.526 106.697 142.556C106.745 142.586 106.783 142.63 106.804 142.683L109.093 147.842C109.107 147.871 109.115 147.904 109.115 147.937ZM105.199 146.199H107.881L106.544 143.154L105.199 146.199Z" fill="#E5E5E5"/>
<path d="M118.779 142.583C118.821 142.636 118.842 142.702 118.838 142.769V147.889C118.841 147.955 118.819 148.02 118.776 148.07C118.754 148.094 118.727 148.113 118.697 148.125C118.667 148.137 118.635 148.143 118.603 148.142C118.561 148.14 118.519 148.128 118.483 148.108C118.446 148.088 118.414 148.059 118.39 148.024L114.945 143.374V147.889C114.947 147.955 114.925 148.02 114.882 148.07C114.838 148.115 114.777 148.141 114.714 148.142C114.651 148.143 114.589 148.118 114.544 148.074C114.504 148.021 114.485 147.956 114.489 147.889V142.769C114.487 142.735 114.493 142.702 114.504 142.671C114.516 142.64 114.533 142.612 114.556 142.588C114.58 142.564 114.609 142.545 114.64 142.533C114.672 142.521 114.706 142.516 114.74 142.518C114.781 142.517 114.822 142.528 114.858 142.549C114.894 142.57 114.924 142.599 114.945 142.635L118.383 147.276V142.769C118.38 142.703 118.402 142.638 118.445 142.588C118.466 142.565 118.491 142.546 118.52 142.534C118.548 142.522 118.579 142.516 118.61 142.518C118.642 142.515 118.673 142.52 118.702 142.532C118.731 142.543 118.757 142.561 118.779 142.583Z" fill="#E5E5E5"/>
<path d="M125.259 147.98C124.942 147.882 124.652 147.711 124.413 147.481C124.38 147.453 124.354 147.418 124.336 147.378C124.318 147.339 124.31 147.296 124.311 147.253C124.309 147.198 124.328 147.145 124.363 147.103C124.375 147.084 124.392 147.069 124.412 147.058C124.432 147.048 124.453 147.041 124.476 147.04C124.543 147.046 124.607 147.073 124.658 147.118C125.139 147.524 125.751 147.742 126.381 147.732C126.77 147.756 127.157 147.656 127.485 147.446C127.612 147.353 127.714 147.23 127.782 147.088C127.85 146.946 127.882 146.789 127.874 146.632C127.878 146.541 127.863 146.45 127.831 146.364C127.799 146.279 127.749 146.201 127.686 146.136C127.55 146.003 127.385 145.902 127.205 145.841C126.95 145.753 126.69 145.68 126.427 145.623C126.073 145.551 125.725 145.454 125.385 145.333C125.128 145.239 124.897 145.084 124.713 144.881C124.521 144.655 124.422 144.364 124.438 144.068C124.433 143.774 124.519 143.486 124.686 143.244C124.861 142.998 125.102 142.806 125.382 142.691C125.707 142.554 126.058 142.486 126.411 142.493C126.76 142.491 127.106 142.551 127.433 142.671C127.734 142.776 128.006 142.95 128.229 143.179C128.261 143.208 128.286 143.243 128.304 143.282C128.321 143.321 128.331 143.364 128.331 143.407C128.332 143.461 128.314 143.513 128.279 143.555C128.267 143.574 128.25 143.589 128.23 143.6C128.211 143.611 128.189 143.617 128.166 143.618C128.099 143.612 128.035 143.584 127.984 143.54C127.754 143.342 127.496 143.18 127.218 143.059C126.959 142.965 126.686 142.92 126.411 142.926C126.024 142.903 125.64 143.008 125.317 143.224C125.189 143.321 125.086 143.447 125.018 143.593C124.949 143.738 124.917 143.898 124.924 144.058C124.916 144.248 124.977 144.434 125.097 144.581C125.221 144.722 125.376 144.831 125.55 144.9C125.784 144.994 126.025 145.071 126.271 145.129L126.474 145.175C126.814 145.255 127.15 145.353 127.481 145.467C127.72 145.551 127.935 145.693 128.107 145.88C128.285 146.089 128.376 146.358 128.362 146.632C128.366 146.917 128.279 147.196 128.114 147.429C127.937 147.672 127.695 147.86 127.415 147.972C127.087 148.105 126.735 148.171 126.381 148.165C125.999 148.166 125.62 148.103 125.259 147.98Z" fill="#E5E5E5"/>
<path d="M133.92 148.07C133.897 148.046 133.88 148.017 133.868 147.986C133.856 147.955 133.851 147.922 133.853 147.889V142.769C133.851 142.735 133.857 142.702 133.868 142.671C133.88 142.64 133.897 142.612 133.92 142.588C133.943 142.564 133.97 142.546 134.001 142.534C134.031 142.522 134.063 142.516 134.096 142.518C134.129 142.516 134.162 142.522 134.192 142.534C134.223 142.546 134.251 142.564 134.274 142.588C134.319 142.637 134.343 142.702 134.341 142.769V147.889C134.342 147.922 134.337 147.955 134.325 147.986C134.314 148.017 134.296 148.046 134.274 148.07C134.251 148.094 134.223 148.112 134.193 148.125C134.162 148.137 134.129 148.143 134.096 148.142C134.063 148.143 134.031 148.137 134 148.125C133.97 148.112 133.943 148.094 133.92 148.07Z" fill="#E5E5E5"/>
<path d="M141.61 148.07C141.566 148.02 141.543 147.956 141.546 147.889V142.981H139.729C139.67 142.985 139.612 142.965 139.567 142.926C139.547 142.906 139.532 142.881 139.522 142.854C139.512 142.826 139.507 142.798 139.509 142.769C139.508 142.74 139.512 142.711 139.522 142.684C139.532 142.657 139.547 142.632 139.567 142.611C139.612 142.572 139.67 142.553 139.729 142.556H143.836C143.865 142.555 143.893 142.56 143.92 142.57C143.947 142.58 143.971 142.596 143.992 142.616C144.013 142.635 144.03 142.659 144.041 142.685C144.052 142.712 144.057 142.74 144.056 142.769C144.057 142.797 144.052 142.826 144.041 142.852C144.03 142.879 144.013 142.902 143.992 142.922C143.971 142.942 143.947 142.957 143.92 142.967C143.893 142.977 143.865 142.982 143.836 142.981H142.026V147.889C142.027 147.922 142.022 147.955 142.01 147.986C141.999 148.017 141.981 148.046 141.959 148.07C141.936 148.094 141.909 148.113 141.878 148.125C141.848 148.137 141.815 148.143 141.783 148.142C141.75 148.143 141.718 148.138 141.688 148.125C141.658 148.113 141.631 148.094 141.61 148.07Z" fill="#E5E5E5"/>
<path d="M149.29 148.07C149.267 148.046 149.25 148.017 149.238 147.986C149.227 147.955 149.221 147.922 149.223 147.889V142.769C149.221 142.735 149.227 142.702 149.238 142.671C149.25 142.64 149.268 142.612 149.29 142.588C149.313 142.564 149.34 142.546 149.371 142.534C149.401 142.522 149.434 142.516 149.466 142.518C149.499 142.516 149.532 142.522 149.563 142.534C149.593 142.546 149.621 142.564 149.644 142.588C149.689 142.637 149.713 142.702 149.711 142.769V147.889C149.712 147.922 149.707 147.955 149.695 147.986C149.684 148.017 149.666 148.046 149.644 148.07C149.621 148.094 149.593 148.112 149.563 148.125C149.532 148.137 149.499 148.143 149.466 148.142C149.433 148.143 149.401 148.137 149.37 148.125C149.34 148.112 149.313 148.094 149.29 148.07Z" fill="#E5E5E5"/>
<path d="M156.492 147.822C156.114 147.588 155.815 147.246 155.633 146.84C155.236 145.872 155.236 144.787 155.633 143.82C155.814 143.414 156.111 143.072 156.487 142.836C156.891 142.611 157.345 142.493 157.807 142.493C158.268 142.493 158.723 142.611 159.126 142.836C159.503 143.07 159.802 143.411 159.984 143.815C160.382 144.784 160.382 145.871 159.984 146.84C159.803 147.245 159.504 147.587 159.126 147.822C158.724 148.047 158.27 148.165 157.809 148.165C157.348 148.165 156.894 148.047 156.492 147.822ZM159.261 147.103C159.599 146.573 159.779 145.957 159.779 145.328C159.78 144.699 159.601 144.083 159.264 143.552C159.077 143.354 158.851 143.196 158.601 143.089C158.35 142.981 158.081 142.926 157.808 142.926C157.536 142.926 157.266 142.982 157.016 143.09C156.766 143.199 156.541 143.357 156.354 143.555C156.017 144.084 155.838 144.699 155.838 145.327C155.838 145.954 156.017 146.569 156.354 147.098C156.53 147.31 156.752 147.477 157.004 147.587C157.256 147.697 157.53 147.746 157.804 147.732C158.079 147.746 158.354 147.697 158.606 147.588C158.859 147.479 159.083 147.313 159.261 147.103Z" fill="#E5E5E5"/>
<path d="M170.197 142.583C170.239 142.636 170.26 142.702 170.257 142.769V147.889C170.259 147.955 170.237 148.02 170.194 148.07C170.172 148.094 170.146 148.113 170.116 148.125C170.086 148.137 170.054 148.143 170.021 148.142C169.979 148.14 169.938 148.128 169.901 148.108C169.864 148.088 169.832 148.059 169.809 148.024L166.363 143.374V147.889C166.366 147.955 166.343 148.02 166.3 148.07C166.256 148.115 166.196 148.141 166.132 148.142C166.069 148.143 166.008 148.118 165.962 148.074C165.923 148.021 165.903 147.956 165.907 147.889V142.769C165.906 142.735 165.911 142.702 165.923 142.671C165.934 142.64 165.952 142.612 165.975 142.588C165.998 142.564 166.027 142.545 166.059 142.533C166.09 142.521 166.124 142.516 166.158 142.518C166.2 142.517 166.241 142.528 166.277 142.549C166.313 142.57 166.343 142.599 166.363 142.635L169.801 147.276V142.769C169.798 142.703 169.82 142.638 169.864 142.588C169.884 142.565 169.91 142.546 169.938 142.534C169.967 142.522 169.998 142.516 170.029 142.518C170.06 142.515 170.091 142.52 170.12 142.532C170.15 142.543 170.176 142.561 170.197 142.583Z" fill="#E5E5E5"/>
<path d="M16.752 145.474H52.2382" stroke="#E5E5E5" stroke-width="0.391667" stroke-miterlimit="10"/>
<path d="M98.5402 101.006L83.7624 74.9201L87.7219 88.9842C88.2666 90.9165 88.0937 92.4181 87.2477 93.1043C86.8171 93.3746 86.319 93.518 85.8107 93.5181C85.3023 93.5182 84.8042 93.3749 84.3736 93.1048C80.7828 90.7739 77.9399 87.4575 76.1852 83.5527C74.4206 79.5218 73.8274 75.0753 74.4735 70.7228C75.1454 66.3137 77.0812 62.194 80.0464 58.8625C83.0848 55.5038 86.9398 52.9874 91.2373 51.5575L90.9699 50.7144C86.4079 52.0014 82.2561 54.446 78.9176 57.8109C75.5491 61.2604 73.2527 65.6123 72.3062 70.3399C71.3667 75.1258 71.7925 80.0796 73.5351 84.635C74.4106 86.939 75.6366 89.094 77.1699 91.0237C78.7149 92.9256 80.4924 94.6262 82.4606 96.0858C86.2105 98.7737 90.6238 100.385 95.2234 100.747L98.5402 101.006Z" fill="#E5E5E5"/>
<path d="M120.853 66.2462C119.977 63.9422 118.751 61.7873 117.218 59.8576C115.673 57.9557 113.896 56.2551 111.927 54.7954C108.177 52.1086 103.764 50.4966 99.1646 50.1341L95.8477 49.8748L110.625 75.9626L106.666 61.8971C106.121 59.9647 106.294 58.4631 107.14 57.7769C107.571 57.5072 108.069 57.3641 108.577 57.3641C109.086 57.364 109.584 57.5069 110.015 57.7765C113.605 60.1075 116.448 63.4238 118.203 67.3285C119.967 71.3594 120.56 75.8059 119.914 80.1584C119.242 84.5675 117.307 88.6873 114.341 92.0188C111.303 95.3775 107.448 97.8938 103.151 99.3238L103.418 100.167C107.98 98.8799 112.132 96.4352 115.47 93.0703C118.839 89.6208 121.135 85.2689 122.082 80.5414C123.021 75.7554 122.595 70.8016 120.853 66.2462Z" fill="#E5E5E5"/>
<path d="M96.6043 39.3755C96.7209 39.2543 96.8611 39.1584 97.0164 39.0938C97.1716 39.0291 97.3384 38.9969 97.5066 38.9994C97.6625 39.0028 97.8161 39.0379 97.9581 39.1025C98.1001 39.1672 98.2274 39.2601 98.3323 39.3755L106.001 46.7426C106.05 46.7426 106.076 46.7932 106.076 46.8935C106.07 46.9546 106.049 47.0134 106.017 47.0654C105.984 47.1174 105.94 47.1613 105.888 47.1938C105.762 47.2949 105.675 47.3194 105.626 47.2688L97.5065 42.9089L89.3122 47.2688C89.2111 47.3194 89.0855 47.2573 88.9354 47.0812C88.7852 46.9057 88.7592 46.7932 88.8603 46.7426L96.6043 39.3755Z" fill="#E5E5E5"/>
</svg>
