<svg width="188" height="188" viewBox="0 0 188 188" fill="none" xmlns="http://www.w3.org/2000/svg">
<path d="M21.7447 132.848C21.718 133.317 21.7851 133.786 21.9421 134.228C22.011 134.373 22.1118 134.499 22.2369 134.599C22.3621 134.698 22.5082 134.768 22.6642 134.802C23.2255 134.922 23.7996 134.972 24.3732 134.951H27.9532C28.504 134.977 29.0541 134.888 29.5688 134.69C30.0834 134.493 30.5513 134.19 30.9428 133.802C31.746 132.913 32.2617 131.802 32.4222 130.615C32.4222 130.549 32.4819 130.521 32.6027 130.532C32.7221 130.543 32.7833 130.581 32.7833 130.647C32.6061 132.141 32.507 133.643 32.4865 135.148C32.4987 135.281 32.4641 135.415 32.3886 135.526C32.3342 135.571 32.271 135.605 32.2031 135.624C32.1352 135.644 32.0639 135.65 31.9938 135.641H16.8167C16.7723 135.641 16.7509 135.575 16.7509 135.443C16.7509 135.312 16.7723 135.246 16.8167 135.246C17.429 135.268 18.0418 135.213 18.6403 135.082C18.8103 135.044 18.9688 134.966 19.1028 134.854C19.2369 134.743 19.3426 134.601 19.4114 134.441C19.5662 133.97 19.6331 133.475 19.6088 132.98V117.769C19.6344 117.279 19.5674 116.789 19.4114 116.323C19.339 116.166 19.2321 116.026 19.0987 115.915C18.9652 115.804 18.8086 115.725 18.6403 115.682C18.0436 115.539 17.43 115.478 16.8167 115.502C16.7723 115.502 16.7509 115.436 16.7509 115.304C16.7509 115.173 16.7723 115.107 16.8167 115.107L18.4262 115.141C19.3456 115.185 20.0902 115.207 20.6599 115.206C21.2734 115.206 22.0399 115.184 22.9594 115.141L24.5368 115.107C24.6026 115.107 24.6347 115.173 24.6347 115.304C24.6347 115.436 24.6025 115.502 24.5368 115.502C23.9346 115.479 23.3322 115.539 22.7467 115.682C22.5748 115.727 22.4148 115.809 22.2783 115.923C22.1418 116.037 22.0322 116.179 21.9573 116.34C21.7908 116.808 21.7185 117.305 21.7446 117.801L21.7447 132.848Z" fill="#FCFCFC"/>
<path d="M51.5418 133.802C51.579 133.804 51.6149 133.816 51.6464 133.836C51.6779 133.856 51.704 133.884 51.7224 133.916C51.7481 133.945 51.7636 133.982 51.7664 134.02C51.7691 134.059 51.759 134.097 51.7377 134.129C50.4349 135.344 48.7227 136.025 46.9413 136.035C45.8389 136.076 44.7488 135.792 43.8058 135.22C42.8628 134.648 42.1082 133.811 41.6354 132.815C41.1651 131.854 40.9237 130.797 40.9301 129.727C40.9185 128.479 41.2356 127.249 41.8496 126.163C42.4472 125.095 43.3202 124.207 44.3778 123.591C45.4354 122.976 46.6387 122.656 47.8623 122.664C48.3751 122.63 48.8895 122.699 49.3748 122.869C49.86 123.038 50.3062 123.303 50.6866 123.649C51.0287 124.018 51.2923 124.454 51.4617 124.928C51.631 125.402 51.7025 125.906 51.6719 126.409C51.6835 126.631 51.656 126.854 51.5908 127.067C51.5713 127.125 51.5336 127.176 51.4831 127.211C51.4327 127.246 51.3723 127.264 51.3108 127.263L43.1638 127.296C43.1195 127.778 43.0975 128.172 43.098 128.479C43.0212 130.13 43.4948 131.759 44.4444 133.111C44.8825 133.692 45.4557 134.157 46.1142 134.466C46.7727 134.775 47.4967 134.919 48.2234 134.885C48.7985 134.898 49.3715 134.809 49.9155 134.621C50.4727 134.403 51.0063 134.128 51.5082 133.801L51.5418 133.802ZM44.4444 124.258C43.7824 124.984 43.3585 125.895 43.2296 126.869L49.4718 126.738C49.535 125.831 49.279 124.93 48.7481 124.192C48.5089 123.905 48.2066 123.677 47.8648 123.526C47.523 123.375 47.1509 123.305 46.7776 123.321C46.3451 123.308 45.9145 123.384 45.5129 123.545C45.1114 123.706 44.7475 123.949 44.4444 124.258Z" fill="#FCFCFC"/>
<path d="M80.5666 134.375C80.6919 134.555 80.8526 134.708 81.0389 134.823C81.2251 134.939 81.433 135.016 81.6498 135.048C82.4887 135.207 83.3424 135.273 84.1956 135.246C84.2614 135.246 84.2951 135.312 84.2951 135.443C84.2951 135.575 84.2614 135.641 84.1956 135.641C83.2976 135.641 82.5968 135.63 82.0935 135.609L79.2355 135.575L77.0339 135.609C76.6178 135.63 76.0594 135.641 75.3586 135.641C75.3143 135.641 75.2928 135.575 75.2928 135.443C75.2928 135.312 75.3143 135.246 75.3586 135.246C75.971 135.269 76.5838 135.214 77.1824 135.082C77.3524 135.044 77.511 134.966 77.6451 134.855C77.7791 134.743 77.8848 134.601 77.9534 134.441C78.1082 133.97 78.1751 133.475 78.1508 132.98V117.769C78.1764 117.279 78.1094 116.789 77.9534 116.323C77.8812 116.166 77.7744 116.026 77.6409 115.915C77.5075 115.804 77.3507 115.725 77.1824 115.682C76.5856 115.539 75.972 115.478 75.3586 115.502C75.3143 115.502 75.2928 115.436 75.2928 115.304C75.2928 115.173 75.3143 115.107 75.3586 115.107L77.0018 115.141C77.9213 115.185 78.6547 115.207 79.2019 115.207C79.7496 115.207 80.3631 115.173 81.0424 115.107C81.3056 115.107 81.7217 115.092 82.2909 115.058C82.86 115.026 83.3526 115.01 83.7688 115.009C85.4874 114.923 87.1876 115.395 88.6157 116.356C89.233 116.838 89.7222 117.465 90.04 118.181C90.3577 118.897 90.4944 119.68 90.4378 120.462C90.4816 121.761 90.1073 123.039 89.3699 124.109C88.6791 125.078 87.7362 125.84 86.6436 126.311C85.5617 126.787 84.3925 127.033 83.2103 127.033C82.6691 127.045 82.1285 126.99 81.6008 126.869C81.535 126.869 81.5029 126.814 81.5029 126.704C81.5031 126.635 81.5199 126.568 81.5519 126.507C81.584 126.442 81.6223 126.42 81.6666 126.442C82.0541 126.534 82.4512 126.577 82.8493 126.573C83.5226 126.589 84.1926 126.473 84.8211 126.231C85.4496 125.989 86.0241 125.625 86.512 125.16C87.0325 124.624 87.4346 123.984 87.692 123.282C87.9495 122.58 88.0568 121.832 88.0067 121.086C88.0896 119.591 87.5826 118.122 86.5946 116.997C86.1326 116.506 85.5715 116.118 84.9485 115.861C84.3254 115.603 83.6547 115.481 82.9809 115.502C82.4081 115.483 81.8351 115.527 81.2719 115.633C81.1077 115.67 80.954 115.743 80.8229 115.849C80.6918 115.954 80.5868 116.088 80.5161 116.241C80.3316 116.751 80.2535 117.294 80.2866 117.835V132.848C80.2506 133.373 80.3469 133.898 80.5666 134.375Z" fill="#FCFCFC"/>
<path d="M104.975 134.606C103.413 133.68 102.139 132.338 101.296 130.73C100.428 129.085 99.9819 127.25 99.9984 125.39C99.9412 123.325 100.539 121.295 101.707 119.591C102.814 118.008 104.33 116.754 106.092 115.962C107.807 115.167 109.673 114.752 111.563 114.746C113.493 114.706 115.396 115.213 117.05 116.209C118.587 117.142 119.842 118.477 120.679 120.069C121.514 121.636 121.949 123.385 121.944 125.16C121.959 127.103 121.411 129.009 120.367 130.647C119.324 132.304 117.869 133.662 116.146 134.589C114.389 135.552 112.416 136.05 110.413 136.035C108.503 136.069 106.622 135.574 104.975 134.606ZM115.587 134.261C116.819 133.496 117.801 132.388 118.413 131.074C119.137 129.511 119.491 127.802 119.447 126.08C119.483 124.188 119.09 122.312 118.298 120.594C117.591 119.067 116.47 117.769 115.062 116.848C113.603 115.932 111.906 115.464 110.183 115.502C109.127 115.446 108.071 115.626 107.094 116.03C106.116 116.433 105.241 117.05 104.532 117.835C103.087 119.647 102.362 121.928 102.495 124.241C102.47 126.18 102.862 128.101 103.646 129.874C104.336 131.477 105.448 132.863 106.865 133.883C108.237 134.855 109.882 135.367 111.563 135.345C112.979 135.365 114.373 134.99 115.587 134.261ZM110.676 109.687C110.727 109.634 110.788 109.592 110.856 109.564C110.924 109.536 110.997 109.522 111.071 109.523C111.139 109.525 111.206 109.54 111.268 109.568C111.33 109.596 111.386 109.636 111.432 109.687L114.782 112.907C114.804 112.907 114.816 112.928 114.816 112.973C114.813 112.999 114.804 113.025 114.789 113.047C114.775 113.07 114.756 113.089 114.733 113.103C114.678 113.147 114.64 113.158 114.619 113.137L111.071 111.232L107.489 113.137C107.445 113.158 107.391 113.132 107.325 113.054C107.259 112.977 107.247 112.928 107.292 112.907L110.676 109.687Z" fill="#FCFCFC"/>
<path d="M136.203 132.848C136.176 133.317 136.243 133.786 136.399 134.228C136.468 134.373 136.569 134.499 136.695 134.598C136.82 134.698 136.966 134.767 137.123 134.802C137.683 134.922 138.257 134.972 138.83 134.951H142.412C142.962 134.977 143.512 134.888 144.027 134.69C144.542 134.493 145.01 134.19 145.401 133.802C146.204 132.913 146.719 131.802 146.879 130.615C146.879 130.549 146.94 130.521 147.059 130.532C147.18 130.543 147.24 130.581 147.24 130.647C147.064 132.141 146.965 133.643 146.945 135.148C146.957 135.281 146.922 135.415 146.847 135.526C146.792 135.571 146.729 135.605 146.661 135.624C146.594 135.644 146.522 135.65 146.452 135.641H131.275C131.231 135.641 131.209 135.575 131.209 135.443C131.209 135.312 131.231 135.246 131.275 135.246C131.887 135.268 132.499 135.213 133.097 135.082C133.267 135.044 133.426 134.966 133.561 134.854C133.695 134.743 133.801 134.601 133.87 134.441C134.025 133.97 134.091 133.475 134.067 132.98V117.769C134.093 117.279 134.026 116.789 133.87 116.323C133.797 116.165 133.69 116.026 133.556 115.915C133.423 115.804 133.266 115.724 133.097 115.682C132.501 115.539 131.888 115.478 131.275 115.502C131.231 115.502 131.209 115.436 131.209 115.304C131.209 115.173 131.231 115.107 131.275 115.107L132.885 115.141C133.804 115.185 134.549 115.207 135.118 115.206C135.732 115.206 136.498 115.184 137.418 115.141L138.995 115.107C139.061 115.107 139.093 115.173 139.093 115.304C139.093 115.436 139.061 115.502 138.995 115.502C138.392 115.479 137.79 115.54 137.204 115.682C137.032 115.727 136.872 115.809 136.736 115.923C136.6 116.037 136.49 116.179 136.416 116.34C136.249 116.808 136.177 117.305 136.203 117.801L136.203 132.848Z" fill="#FCFCFC"/>
<path d="M169.941 130.681C170.003 130.68 170.064 130.691 170.122 130.713C170.144 130.718 170.164 130.731 170.179 130.748C170.193 130.766 170.202 130.788 170.203 130.811C170.003 132.248 169.904 133.697 169.908 135.148C169.921 135.284 169.88 135.42 169.793 135.526C169.676 135.615 169.529 135.656 169.383 135.641H155.617C155.572 135.641 155.551 135.575 155.551 135.443C155.551 135.312 155.572 135.246 155.617 135.246C156.229 135.269 156.842 135.214 157.44 135.082C157.612 135.042 157.772 134.964 157.908 134.853C158.045 134.742 158.154 134.601 158.228 134.441C158.395 133.973 158.468 133.476 158.442 132.98V117.769C158.47 117.278 158.397 116.786 158.228 116.323C158.151 116.166 158.04 116.027 157.904 115.917C157.768 115.806 157.61 115.726 157.44 115.682C156.844 115.539 156.23 115.478 155.617 115.502C155.572 115.502 155.551 115.436 155.551 115.304C155.551 115.173 155.572 115.107 155.617 115.107H168.825C168.865 115.102 168.906 115.105 168.944 115.118C168.983 115.131 169.018 115.153 169.046 115.182C169.075 115.211 169.096 115.246 169.109 115.284C169.122 115.323 169.126 115.364 169.12 115.404L169.186 119.444C169.186 119.51 169.131 119.548 169.02 119.559C168.912 119.57 168.846 119.542 168.825 119.477C168.821 118.474 168.446 117.509 167.772 116.767C167.44 116.44 167.044 116.185 166.609 116.018C166.174 115.851 165.709 115.776 165.243 115.797H163.239C162.669 115.774 162.099 115.835 161.547 115.978C161.384 116.024 161.233 116.103 161.103 116.21C160.973 116.318 160.867 116.451 160.791 116.602C160.626 117.025 160.554 117.479 160.578 117.933V124.602H164.585C165.372 124.671 166.161 124.487 166.836 124.076C167.079 123.853 167.266 123.577 167.383 123.269C167.5 122.961 167.544 122.63 167.51 122.303C167.51 122.258 167.576 122.237 167.706 122.237C167.838 122.237 167.904 122.258 167.904 122.303L167.872 124.963C167.872 125.6 167.882 126.08 167.904 126.409L167.937 127.986C167.937 128.031 167.872 128.052 167.74 128.052C167.608 128.052 167.543 128.031 167.543 127.986C167.579 127.611 167.536 127.232 167.414 126.875C167.292 126.518 167.095 126.191 166.836 125.916C166.152 125.437 165.319 125.215 164.487 125.292H160.578V132.848C160.553 133.306 160.62 133.764 160.776 134.195C160.846 134.34 160.947 134.468 161.072 134.57C161.196 134.673 161.342 134.747 161.498 134.787C162.035 134.918 162.588 134.973 163.141 134.951H165.769C166.262 134.962 166.751 134.869 167.204 134.676C167.657 134.484 168.063 134.196 168.396 133.834C169.156 132.963 169.647 131.891 169.81 130.746C169.81 130.702 169.853 130.681 169.941 130.681Z" fill="#FCFCFC"/>
<path d="M60.2167 148.032C60.1927 148.01 60.1735 147.983 60.1606 147.953C60.1477 147.924 60.1413 147.891 60.1418 147.859V142.801C60.1411 142.768 60.1475 142.736 60.1604 142.706C60.1733 142.676 60.1925 142.65 60.2167 142.628C60.2413 142.604 60.2703 142.586 60.3021 142.573C60.3339 142.561 60.3678 142.555 60.4019 142.556H61.9273C62.3 142.516 62.6769 142.561 63.0302 142.686C63.3835 142.811 63.7042 143.014 63.9685 143.28C64.2328 143.546 64.4341 143.868 64.5574 144.222C64.6808 144.576 64.7231 144.953 64.6812 145.325C64.7057 145.699 64.6545 146.074 64.5307 146.428C64.4069 146.781 64.2129 147.106 63.9605 147.383C63.6875 147.634 63.3667 147.827 63.0173 147.95C62.6679 148.074 62.2971 148.125 61.9272 148.102H60.4018C60.3679 148.103 60.334 148.098 60.3022 148.085C60.2704 148.073 60.2414 148.055 60.2167 148.032ZM64.1686 145.325C64.2186 145.013 64.1953 144.693 64.1004 144.392C64.0056 144.09 63.8419 143.815 63.6222 143.587C63.4025 143.36 63.1329 143.187 62.8347 143.082C62.5366 142.976 62.218 142.942 61.9043 142.981H60.6298V147.677H61.9043C63.4143 147.677 64.1691 146.893 64.1686 145.325Z" fill="#FCFCFC"/>
<path d="M70.371 148.032C70.3474 148.01 70.3287 147.983 70.316 147.953C70.3034 147.923 70.2971 147.891 70.2975 147.859V142.801C70.2969 142.768 70.3032 142.736 70.3158 142.706C70.3285 142.677 70.3473 142.65 70.371 142.628C70.4207 142.58 70.4873 142.554 70.5561 142.556H73.5456C73.6043 142.553 73.662 142.572 73.7063 142.611C73.7268 142.632 73.7427 142.656 73.753 142.683C73.7633 142.711 73.7677 142.74 73.7659 142.769C73.7673 142.796 73.7626 142.824 73.7524 142.85C73.7421 142.876 73.7263 142.899 73.7063 142.919C73.662 142.957 73.6043 142.977 73.5456 142.974H70.7764V145.074H73.388C73.4472 145.071 73.5053 145.091 73.5502 145.129C73.5877 145.173 73.6084 145.229 73.6084 145.286C73.6084 145.344 73.5877 145.399 73.5502 145.443C73.5053 145.482 73.4472 145.501 73.388 145.498H70.7764V147.686H73.5456C73.6035 147.683 73.6607 147.7 73.7063 147.736C73.727 147.756 73.7431 147.78 73.7534 147.806C73.7637 147.833 73.768 147.861 73.7659 147.889C73.7678 147.918 73.7635 147.947 73.7532 147.975C73.7429 148.002 73.7269 148.026 73.7063 148.047C73.662 148.086 73.6043 148.105 73.5456 148.102H70.5561C70.4875 148.104 70.4209 148.079 70.371 148.032Z" fill="#FCFCFC"/>
<path d="M87.0749 148.07C87.0314 148.02 87.0089 147.955 87.0123 147.889V142.981H85.1946C85.1359 142.985 85.0781 142.965 85.034 142.926C85.0133 142.906 84.9973 142.881 84.987 142.854C84.9767 142.827 84.9724 142.798 84.9743 142.769C84.9725 142.74 84.9769 142.711 84.9872 142.683C84.9975 142.656 85.0134 142.632 85.034 142.611C85.0781 142.572 85.1359 142.552 85.1946 142.556H89.301C89.3593 142.554 89.4159 142.576 89.4586 142.616C89.4792 142.635 89.4954 142.659 89.5062 142.685C89.517 142.712 89.5221 142.74 89.5213 142.769C89.5223 142.797 89.5172 142.826 89.5064 142.852C89.4956 142.878 89.4793 142.902 89.4586 142.922C89.4159 142.961 89.3593 142.983 89.301 142.981H87.4911V147.889C87.4926 147.922 87.4875 147.955 87.4762 147.986C87.4649 148.017 87.4476 148.046 87.4253 148.07C87.4024 148.094 87.3748 148.112 87.3442 148.125C87.3136 148.137 87.2808 148.143 87.2478 148.142C87.2155 148.143 87.1832 148.138 87.1533 148.125C87.1234 148.113 87.0966 148.094 87.0749 148.07Z" fill="#FCFCFC"/>
<path d="M98.8815 147.944C98.8822 147.972 98.8765 148 98.8649 148.025C98.8532 148.05 98.8358 148.072 98.8141 148.09C98.7727 148.129 98.7179 148.15 98.6612 148.149C98.6178 148.149 98.5752 148.138 98.5378 148.116C98.5005 148.094 98.4696 148.062 98.4485 148.024L97.3867 146.324C97.2742 146.123 97.1133 145.952 96.9185 145.828C96.7118 145.729 96.4835 145.684 96.2545 145.695H95.1775V147.889C95.1794 147.923 95.1744 147.957 95.1628 147.989C95.1512 148.021 95.1333 148.05 95.1101 148.074C95.0611 148.118 94.998 148.142 94.9326 148.142C94.8672 148.142 94.8041 148.118 94.7552 148.074C94.7322 148.05 94.7145 148.02 94.7032 147.989C94.6919 147.957 94.6872 147.923 94.6894 147.889V142.801C94.6887 142.768 94.695 142.736 94.7076 142.706C94.7203 142.677 94.7391 142.65 94.7628 142.628C94.8126 142.58 94.8791 142.554 94.9479 142.556H96.9078C97.3891 142.525 97.8656 142.666 98.2526 142.954C98.542 143.247 98.7101 143.639 98.7231 144.051C98.7362 144.463 98.5933 144.864 98.323 145.175C98.0115 145.457 97.6104 145.619 97.1908 145.633C97.3199 145.676 97.4379 145.747 97.5366 145.841C97.6612 145.962 97.7697 146.098 97.8594 146.246L98.834 147.811C98.8629 147.85 98.8794 147.896 98.8815 147.944ZM96.8758 145.278C97.7891 145.278 98.2456 144.887 98.245 144.106C98.2573 143.947 98.2332 143.788 98.1746 143.64C98.116 143.492 98.0245 143.359 97.9069 143.252C97.605 143.044 97.2412 142.946 96.8757 142.974H95.1683V145.278L96.8758 145.278Z" fill="#FCFCFC"/>
<path d="M109.115 147.937C109.116 147.965 109.11 147.992 109.097 148.018C109.085 148.043 109.067 148.065 109.045 148.082C108.999 148.121 108.94 148.143 108.88 148.142C108.836 148.141 108.793 148.127 108.757 148.102C108.718 148.074 108.686 148.036 108.667 147.992L108.069 146.623H105.018L104.412 147.992C104.395 148.036 104.365 148.075 104.326 148.101C104.286 148.128 104.24 148.142 104.192 148.142C104.132 148.143 104.074 148.122 104.03 148.082C104.008 148.063 103.991 148.039 103.98 148.013C103.968 147.987 103.963 147.958 103.964 147.929C103.962 147.899 103.968 147.869 103.979 147.842L106.276 142.683C106.294 142.63 106.33 142.584 106.377 142.553C106.424 142.521 106.48 142.506 106.536 142.51C106.593 142.51 106.648 142.526 106.696 142.556C106.745 142.585 106.783 142.63 106.804 142.683L109.092 147.842C109.107 147.871 109.115 147.904 109.115 147.937ZM105.199 146.199H107.881L106.544 143.154L105.199 146.199Z" fill="#FCFCFC"/>
<path d="M118.778 142.583C118.821 142.636 118.842 142.702 118.838 142.769V147.889C118.841 147.955 118.818 148.02 118.775 148.07C118.754 148.094 118.727 148.113 118.697 148.125C118.667 148.138 118.635 148.143 118.603 148.142C118.56 148.14 118.519 148.129 118.482 148.108C118.445 148.088 118.414 148.059 118.39 148.024L114.944 143.374V147.889C114.947 147.955 114.925 148.02 114.882 148.07C114.837 148.115 114.777 148.141 114.714 148.142C114.65 148.143 114.589 148.118 114.544 148.074C114.504 148.021 114.484 147.956 114.489 147.889V142.769C114.487 142.736 114.492 142.703 114.504 142.671C114.516 142.64 114.533 142.612 114.556 142.588C114.58 142.564 114.608 142.545 114.64 142.533C114.672 142.521 114.706 142.516 114.74 142.518C114.781 142.517 114.822 142.528 114.858 142.549C114.894 142.57 114.924 142.599 114.945 142.636L118.382 147.276V142.769C118.379 142.703 118.402 142.638 118.445 142.588C118.466 142.565 118.491 142.546 118.52 142.534C118.548 142.522 118.579 142.516 118.61 142.518C118.641 142.515 118.673 142.52 118.702 142.532C118.731 142.543 118.757 142.561 118.778 142.583Z" fill="#FCFCFC"/>
<path d="M125.259 147.98C124.942 147.882 124.652 147.711 124.413 147.481C124.38 147.453 124.354 147.418 124.336 147.379C124.318 147.339 124.31 147.296 124.311 147.253C124.31 147.198 124.328 147.145 124.363 147.103C124.376 147.085 124.393 147.069 124.412 147.058C124.432 147.048 124.454 147.041 124.476 147.04C124.544 147.046 124.607 147.073 124.658 147.118C125.14 147.524 125.751 147.742 126.381 147.732C126.77 147.756 127.157 147.656 127.486 147.446C127.613 147.353 127.715 147.23 127.783 147.088C127.85 146.946 127.882 146.789 127.874 146.632C127.878 146.541 127.863 146.45 127.831 146.365C127.799 146.279 127.749 146.202 127.686 146.136C127.55 146.003 127.386 145.902 127.206 145.841C126.95 145.753 126.69 145.681 126.427 145.624C126.073 145.551 125.725 145.454 125.385 145.333C125.128 145.239 124.898 145.084 124.713 144.881C124.521 144.655 124.423 144.364 124.438 144.068C124.433 143.774 124.519 143.486 124.686 143.244C124.861 142.998 125.102 142.806 125.382 142.691C125.708 142.554 126.058 142.486 126.412 142.493C126.76 142.491 127.106 142.551 127.434 142.671C127.734 142.776 128.007 142.95 128.229 143.179C128.261 143.208 128.286 143.243 128.304 143.282C128.321 143.321 128.331 143.364 128.332 143.407C128.332 143.461 128.314 143.513 128.28 143.555C128.267 143.574 128.25 143.589 128.231 143.6C128.211 143.611 128.189 143.617 128.166 143.618C128.099 143.612 128.035 143.584 127.984 143.54C127.754 143.342 127.496 143.18 127.218 143.059C126.96 142.965 126.686 142.92 126.412 142.926C126.024 142.903 125.64 143.008 125.318 143.224C125.189 143.321 125.087 143.448 125.018 143.593C124.95 143.738 124.917 143.898 124.924 144.058C124.916 144.248 124.977 144.434 125.097 144.581C125.221 144.722 125.376 144.831 125.55 144.9C125.784 144.995 126.025 145.071 126.271 145.129L126.474 145.175C126.815 145.255 127.151 145.353 127.481 145.467C127.721 145.551 127.936 145.693 128.107 145.88C128.285 146.089 128.377 146.358 128.362 146.632C128.366 146.917 128.28 147.196 128.114 147.429C127.937 147.672 127.695 147.86 127.415 147.972C127.087 148.105 126.735 148.171 126.381 148.165C125.999 148.166 125.62 148.103 125.259 147.98Z" fill="#FCFCFC"/>
<path d="M133.92 148.07C133.898 148.046 133.88 148.018 133.868 147.987C133.857 147.955 133.851 147.922 133.853 147.889V142.769C133.852 142.736 133.857 142.703 133.868 142.671C133.88 142.64 133.898 142.612 133.92 142.588C133.943 142.564 133.97 142.546 134.001 142.534C134.031 142.522 134.064 142.516 134.096 142.518C134.129 142.516 134.162 142.522 134.193 142.534C134.223 142.546 134.251 142.564 134.274 142.588C134.319 142.637 134.343 142.702 134.341 142.769V147.889C134.342 147.922 134.337 147.955 134.326 147.986C134.314 148.017 134.296 148.046 134.274 148.07C134.251 148.094 134.223 148.113 134.193 148.125C134.162 148.137 134.129 148.143 134.096 148.142C134.064 148.143 134.031 148.137 134.001 148.125C133.97 148.112 133.943 148.094 133.92 148.07Z" fill="#FCFCFC"/>
<path d="M141.61 148.07C141.566 148.02 141.543 147.956 141.546 147.889V142.981H139.73C139.67 142.985 139.612 142.965 139.567 142.926C139.547 142.905 139.532 142.881 139.522 142.854C139.512 142.826 139.508 142.797 139.509 142.769C139.508 142.74 139.512 142.711 139.522 142.684C139.532 142.657 139.547 142.632 139.567 142.611C139.612 142.572 139.67 142.553 139.73 142.556H143.836C143.865 142.555 143.893 142.56 143.92 142.57C143.947 142.58 143.971 142.596 143.992 142.616C144.013 142.635 144.03 142.659 144.041 142.685C144.052 142.711 144.057 142.74 144.056 142.769C144.057 142.797 144.052 142.826 144.041 142.852C144.03 142.879 144.013 142.902 143.992 142.922C143.971 142.941 143.947 142.957 143.92 142.967C143.893 142.977 143.865 142.982 143.836 142.981H142.026V147.889C142.027 147.922 142.022 147.955 142.01 147.986C141.999 148.017 141.981 148.046 141.959 148.07C141.936 148.094 141.909 148.113 141.879 148.125C141.848 148.137 141.816 148.143 141.783 148.142C141.75 148.143 141.718 148.138 141.688 148.125C141.658 148.113 141.632 148.094 141.61 148.07Z" fill="#FCFCFC"/>
<path d="M149.29 148.07C149.267 148.046 149.25 148.018 149.238 147.987C149.227 147.955 149.221 147.922 149.223 147.889V142.769C149.221 142.736 149.227 142.703 149.238 142.671C149.25 142.64 149.268 142.612 149.29 142.588C149.313 142.564 149.34 142.546 149.371 142.534C149.401 142.522 149.434 142.516 149.466 142.518C149.499 142.516 149.532 142.522 149.563 142.534C149.593 142.546 149.621 142.564 149.644 142.588C149.689 142.637 149.713 142.702 149.711 142.769V147.889C149.712 147.922 149.707 147.955 149.695 147.986C149.684 148.017 149.666 148.046 149.644 148.07C149.621 148.094 149.593 148.113 149.563 148.125C149.532 148.137 149.499 148.143 149.466 148.142C149.433 148.143 149.401 148.137 149.37 148.125C149.34 148.112 149.313 148.094 149.29 148.07Z" fill="#FCFCFC"/>
<path d="M156.492 147.822C156.114 147.588 155.815 147.246 155.633 146.84C155.236 145.872 155.236 144.787 155.633 143.82C155.814 143.414 156.111 143.072 156.487 142.836C156.891 142.611 157.345 142.493 157.807 142.493C158.269 142.493 158.723 142.611 159.126 142.836C159.503 143.07 159.802 143.411 159.985 143.815C160.382 144.784 160.382 145.871 159.985 146.84C159.803 147.245 159.504 147.587 159.126 147.822C158.724 148.047 158.27 148.165 157.809 148.165C157.348 148.165 156.894 148.047 156.492 147.822ZM159.261 147.103C159.599 146.573 159.779 145.957 159.78 145.328C159.78 144.699 159.601 144.083 159.264 143.552C159.077 143.354 158.851 143.196 158.601 143.089C158.35 142.981 158.081 142.926 157.808 142.926C157.536 142.926 157.266 142.982 157.016 143.09C156.766 143.199 156.541 143.357 156.354 143.555C156.017 144.085 155.838 144.699 155.838 145.327C155.838 145.954 156.017 146.569 156.354 147.098C156.53 147.31 156.752 147.477 157.004 147.587C157.256 147.697 157.53 147.747 157.804 147.732C158.079 147.746 158.354 147.697 158.606 147.588C158.859 147.479 159.083 147.313 159.261 147.103Z" fill="#FCFCFC"/>
<path d="M170.197 142.583C170.239 142.636 170.26 142.702 170.257 142.769V147.889C170.259 147.955 170.237 148.02 170.194 148.07C170.172 148.094 170.145 148.113 170.116 148.125C170.086 148.137 170.053 148.143 170.021 148.142C169.979 148.14 169.938 148.128 169.901 148.108C169.864 148.088 169.832 148.059 169.808 148.024L166.363 143.374V147.889C166.366 147.955 166.343 148.02 166.3 148.07C166.256 148.115 166.196 148.141 166.132 148.142C166.069 148.143 166.008 148.118 165.962 148.074C165.923 148.021 165.903 147.956 165.907 147.889V142.769C165.906 142.736 165.911 142.703 165.923 142.671C165.934 142.64 165.952 142.612 165.975 142.588C165.998 142.564 166.027 142.545 166.059 142.533C166.09 142.521 166.124 142.516 166.158 142.518C166.2 142.517 166.24 142.528 166.277 142.549C166.313 142.57 166.342 142.599 166.363 142.635L169.801 147.276V142.769C169.798 142.703 169.82 142.638 169.864 142.588C169.884 142.565 169.91 142.546 169.938 142.534C169.967 142.522 169.998 142.516 170.029 142.518C170.06 142.515 170.091 142.52 170.12 142.532C170.149 142.543 170.176 142.561 170.197 142.583Z" fill="#FCFCFC"/>
<path d="M16.7522 145.474H52.2385" stroke="#FCFCFC" stroke-width="0.391667" stroke-miterlimit="10"/>
<path d="M98.5403 101.006L83.7626 74.92L87.7221 88.9841C88.2667 90.9164 88.0938 92.418 87.2478 93.1042C86.8172 93.3745 86.3192 93.5179 85.8108 93.5179C85.3024 93.518 84.8044 93.3748 84.3737 93.1047C80.783 90.7737 77.9401 87.4574 76.1853 83.5526C74.4207 79.5217 73.8275 75.0752 74.4737 70.7227C75.1455 66.3136 77.0813 62.1939 80.0465 58.8624C83.085 55.5037 86.9399 52.9873 91.2374 51.5573L90.9701 50.7142C86.408 52.0013 82.2562 54.4459 78.9177 57.8108C75.5492 61.2603 73.2528 65.6122 72.3063 70.3397C71.3668 75.1257 71.7927 80.0795 73.5353 84.6349C74.4107 86.9389 75.6367 89.0939 77.17 91.0236C78.7151 92.9255 80.4925 94.6261 82.4607 96.0857C86.2106 98.7736 90.624 100.385 95.2235 100.747L98.5403 101.006Z" fill="#FCFCFC"/>
<path d="M120.853 66.2463C119.977 63.9423 118.751 61.7874 117.218 59.8577C115.673 57.9558 113.896 56.2552 111.927 54.7956C108.177 52.1087 103.764 50.4967 99.1646 50.1342L95.8477 49.8749L110.625 75.9627L106.666 61.8972C106.121 59.9649 106.294 58.4632 107.14 57.7771C107.571 57.5073 108.069 57.3643 108.577 57.3642C109.086 57.3641 109.584 57.5071 110.015 57.7767C113.605 60.1076 116.448 63.4239 118.203 67.3286C119.967 71.3595 120.56 75.806 119.914 80.1585C119.242 84.5676 117.307 88.6874 114.341 92.0189C111.303 95.3776 107.448 97.894 103.151 99.3239L103.418 100.167C107.98 98.88 112.132 96.4354 115.47 93.0704C118.839 89.6209 121.135 85.269 122.082 80.5415C123.021 75.7555 122.595 70.8017 120.853 66.2463Z" fill="#FCFCFC"/>
<path d="M96.6041 39.3755C96.7208 39.2543 96.861 39.1584 97.0162 39.0937C97.1715 39.029 97.3383 38.9969 97.5064 38.9994C97.6624 39.0027 97.816 39.0378 97.958 39.1025C98.0999 39.1672 98.2273 39.26 98.3322 39.3755L106.001 46.7426C106.05 46.7426 106.076 46.7931 106.076 46.8935C106.07 46.9545 106.049 47.0133 106.017 47.0654C105.984 47.1174 105.94 47.1613 105.888 47.1937C105.762 47.2948 105.675 47.3193 105.626 47.2688L97.5064 42.9089L89.3121 47.2688C89.211 47.3193 89.0854 47.2573 88.9352 47.0811C88.7851 46.9057 88.7591 46.7931 88.8602 46.7426L96.6041 39.3755Z" fill="#FCFCFC"/>
</svg>
