<svg width="22" height="20" viewBox="0 0 22 20" fill="none" xmlns="http://www.w3.org/2000/svg">
<path d="M11.1302 2.5C11.6194 2.5 12.016 2.8731 12.016 3.33333C12.016 3.76069 11.6741 4.11292 11.2335 4.16106L11.1302 4.16667H6.7009C6.24661 4.16667 5.87218 4.48837 5.82101 4.90282L5.81505 5V15C5.81505 15.4274 6.15703 15.7796 6.5976 15.8277L6.7009 15.8333H10.6873C11.1765 15.8333 11.5731 16.2064 11.5731 16.6667C11.5731 17.094 11.2312 17.4463 10.7906 17.4944L10.6873 17.5H6.7009C5.28559 17.5 4.12868 16.4593 4.04785 15.1469L4.04333 15V5C4.04333 3.6686 5.1497 2.58028 6.54475 2.50424L6.7009 2.5H11.1302ZM16.1858 7.05372L18.6914 9.41075C19.0373 9.73617 19.0373 10.2638 18.6914 10.5892L16.1858 12.9462C15.8398 13.2717 15.279 13.2717 14.933 12.9462C14.5871 12.6208 14.5871 12.0932 14.933 11.7677L15.9264 10.8333H11.1302C10.6409 10.8333 10.2443 10.4602 10.2443 10C10.2443 9.53975 10.6409 9.16667 11.1302 9.16667H15.9264L14.933 8.23223C14.5871 7.9068 14.5871 7.37916 14.933 7.05372C15.279 6.72828 15.8398 6.72828 16.1858 7.05372Z" fill="#526581"/>
</svg>
