<svg width="8" height="8" viewBox="0 0 8 8" fill="none" xmlns="http://www.w3.org/2000/svg">
<path d="M6.19004 2.55534V4.10035C6.19004 5.02435 5.66204 5.42034 4.87004 5.42034H2.23304C2.09804 5.42034 1.96904 5.40835 1.84904 5.38135C1.77404 5.36935 1.70204 5.34835 1.63604 5.32435C1.18604 5.15635 0.913042 4.76635 0.913042 4.10035V2.55534C0.913042 1.63134 1.44104 1.23535 2.23304 1.23535H4.87004C5.54204 1.23535 6.02504 1.52035 6.15404 2.17135C6.17504 2.29135 6.19004 2.41434 6.19004 2.55534Z" stroke="#177AE5" stroke-width="0.45" stroke-miterlimit="10" stroke-linecap="round" stroke-linejoin="round"/>
<path d="M7.09037 3.45538V5.00038C7.09037 5.92438 6.56237 6.32037 5.77037 6.32037H3.13337C2.91137 6.32037 2.71037 6.29039 2.53637 6.22439C2.17937 6.09239 1.93637 5.81939 1.84937 5.38139C1.96937 5.40839 2.09837 5.42037 2.23337 5.42037H4.87037C5.66237 5.42037 6.19037 5.02438 6.19037 4.10038V2.55538C6.19037 2.41438 6.17837 2.28839 6.15437 2.17139C6.72437 2.29139 7.09037 2.69338 7.09037 3.45538Z" stroke="#177AE5" stroke-width="0.45" stroke-miterlimit="10" stroke-linecap="round" stroke-linejoin="round"/>
<path d="M3.54958 4.12136C3.98699 4.12136 4.34158 3.76677 4.34158 3.32936C4.34158 2.89195 3.98699 2.53735 3.54958 2.53735C3.11217 2.53735 2.75757 2.89195 2.75757 3.32936C2.75757 3.76677 3.11217 4.12136 3.54958 4.12136Z" stroke="#177AE5" stroke-width="0.45" stroke-miterlimit="10" stroke-linecap="round" stroke-linejoin="round"/>
<path d="M1.83405 2.66943V3.98944" stroke="#177AE5" stroke-width="0.45" stroke-miterlimit="10" stroke-linecap="round" stroke-linejoin="round"/>
<path d="M5.26656 2.66943V3.98944" stroke="#177AE5" stroke-width="0.45" stroke-miterlimit="10" stroke-linecap="round" stroke-linejoin="round"/>
</svg>
