<svg width="24" height="25" viewBox="0 0 24 25" fill="none" xmlns="http://www.w3.org/2000/svg">
<path d="M12.02 3.68945C8.71 3.68945 6.02 6.37945 6.02 9.68945V12.5795C6.02 13.1895 5.76 14.1195 5.45 14.6395L4.3 16.5495C3.59 17.7295 4.08 19.0395 5.38 19.4795C9.69 20.9195 14.34 20.9195 18.65 19.4795C19.86 19.0795 20.39 17.6495 19.73 16.5495L18.58 14.6395C18.28 14.1195 18.02 13.1895 18.02 12.5795V9.68945C18.02 6.38945 15.32 3.68945 12.02 3.68945Z" stroke="#292D32" stroke-width="1.5" stroke-miterlimit="10" stroke-linecap="round"/>
<path d="M13.87 3.97924C13.56 3.88924 13.24 3.81924 12.91 3.77924C11.95 3.65924 11.03 3.72924 10.17 3.97924C10.46 3.23924 11.18 2.71924 12.02 2.71924C12.86 2.71924 13.58 3.23924 13.87 3.97924Z" stroke="#292D32" stroke-width="1.5" stroke-miterlimit="10" stroke-linecap="round" stroke-linejoin="round"/>
<path d="M15.02 19.8394C15.02 21.4894 13.67 22.8394 12.02 22.8394C11.2 22.8394 10.44 22.4994 9.89999 21.9594C9.35999 21.4194 9.01999 20.6594 9.01999 19.8394" stroke="#292D32" stroke-width="1.5" stroke-miterlimit="10"/>
</svg>
